<?xml version="1.0" encoding="iso-8859-1"?>
<!-- Generator: Adobe Illustrator 19.0.0, SVG Export Plug-In . SVG Version: 6.00 Build 0)  -->
<svg version="1.1" id="Capa_1" xmlns="http://www.w3.org/2000/svg" xmlns:xlink="http://www.w3.org/1999/xlink" x="0px" y="0px"
	 viewBox="0 0 509.6 509.6" style="enable-background:new 0 0 509.6 509.6;" xml:space="preserve">
<circle style="fill:#E8EAE9;" cx="242.267" cy="242.133" r="242.133"/>
<g>
	<path style="fill:#57C0EC;" d="M130.267,114.133c1.067,0,1.067-1.067,2.133-1.067c0,0,0,0,1.067,0c3.2,0,7.467-1.067,10.667-1.067
		c1.067,0,1.067,1.067,2.133,1.067c2.133,0,3.2,0,5.333,0c0,0,0-1.067-1.067-2.133C154.8,112,158,112,161.2,113.067l0,0
		c-1.067,0-2.133-1.067-3.2-1.067v-1.067c7.467-1.067,13.867-2.133,21.333-2.133s14.933,1.067,22.4,1.067v1.067
		c-1.067,0-3.2,1.067-4.267,1.067v1.067c2.133,0,4.267-1.067,6.4-1.067c0,0,0,0,0,1.067l-1.067,1.067
		c5.333,0,11.733-1.067,17.067-1.067v1.067c-3.2,1.067-5.333,2.133-8.533,3.2c-2.133,1.067-4.267,1.067-6.4,1.067
		c0,0,0,0,1.067,1.067c-1.067,1.067-3.2,2.133-4.267,4.267H206c-1.067,0-1.067,0-2.133,1.067c2.133,0,3.2,0,4.267,1.067v1.067h-6.4
		c0,0,0,0,0,1.067c1.067,1.067,2.133,1.067,4.267,2.133v1.067c-1.067,0-1.067,0-3.2,0c1.067,1.067,2.133,1.067,3.2,2.133
		c-1.067,0-2.133,1.067-2.133,1.067v1.067c-1.067,0-3.2,0-4.267,1.067l1.067,1.067c-1.067,0-3.2,0-4.267,0
		c1.067,2.133,5.333,1.067,5.333,6.4c-2.133-1.067-4.267-1.067-5.333-2.133c-2.133-1.067-2.133,2.133-3.2,2.133
		c2.133,0,3.2,0,5.333,1.067v1.067c-3.2,1.067-7.467,2.133-10.667,3.2s-6.4,1.067-8.533,4.267c-2.133,2.133-5.333,2.133-7.467,2.133
		s-3.2,1.067-3.2,4.267v1.067c-2.133,1.067-3.2,5.333-4.267,7.467c-1.067,2.133-2.133,1.067-3.2,0
		c-1.067-1.067-2.133-1.067-3.2-1.067c-1.067-1.067-3.2-2.133-4.267-3.2c-2.133-2.133-3.2-4.267-4.267-6.4L148.4,156.8
		c-1.067-1.067-1.067-3.2-1.067-4.267s1.067-2.133,2.133-2.133c1.067,0,2.133,0,2.133-2.133c0-1.067-1.067-1.067-2.133-2.133H148.4
		l1.067,1.067c0,0,0,0,0,1.067c-1.067,0-3.2,0-4.267,0c2.133-5.333,4.267-1.067,7.467-2.133c-2.133-1.067-3.2-2.133-4.267-3.2
		c-1.067,0-2.133,1.067-4.267,1.067c0-2.133,1.067-3.2,1.067-4.267c-4.267-7.467-10.667-8.533-17.067-7.467
		c-3.2,0-6.4-1.067-9.6-1.067v-1.067c1.067,0,2.133,0,4.267,0l0,0c-2.133,0-4.267-1.067-7.467-1.067V128
		c4.267-1.067,8.533-1.067,13.867-2.133V124.8c-1.067,0-2.133,0-3.2-1.067v-1.067C124.933,115.2,128.133,114.133,130.267,114.133z"
		/>
	<path style="fill:#57C0EC;" d="M155.867,296.533c0-2.133-2.133-2.133-3.2-2.133s-1.067-1.067-2.133-2.133
		c-1.067-1.067-1.067-2.133-2.133-2.133c-2.133-1.067-5.333-1.067-8.533-2.133H138.8c-1.067-3.2-4.267-3.2-6.4-4.267
		c-1.067,0-3.2-2.133-3.2-2.133c0-2.133-1.067-3.2-2.133-5.333c-1.067-5.333-4.267-7.467-8.533-7.467
		c-1.067,0-2.133-1.067-3.2-1.067c-1.067-1.067-2.133-3.2-4.267-4.267C110,262.4,110,262.4,108.933,261.333
		c-1.067-1.067-4.267-3.2-5.333-3.2c-2.133,0-5.333,1.067-6.4,0c-2.133-2.133-4.267-2.133-6.4-1.067h-1.067V256
		c0,0,1.067,0,1.067-1.067c0,0,0-1.067-1.067-1.067c-2.133,1.067-4.267,2.133-6.4,3.2c0,0,0,1.067-1.067,1.067
		c-1.067,2.133-1.067,3.2-2.133,5.333c-2.133-3.2-4.267-4.267-6.4-2.133c-1.067,0-2.133,0-3.2,0c-3.2-2.133-3.2-6.4-2.133-10.667
		c0-2.133,0-3.2-1.067-4.267c-1.067,0-2.133-1.067-3.2-1.067c-1.067,0-3.2,0-4.267,0c1.067-4.267,2.133-8.533,3.2-12.8
		c-2.133,0-3.2,0-5.333,1.067c0,0-1.067,1.067-1.067,2.133c0,2.133-1.067,4.267-2.133,4.267s-3.2,1.067-4.267,1.067
		c-2.133,0-6.4-6.4-6.4-10.667c0-3.2,0-6.4,1.067-10.667v-1.067C46,216.533,50.267,214.4,52.4,214.4s5.333,4.267,6.4-1.067l0,0
		c2.133,0,4.267,1.067,6.4,1.067h1.067c1.067,0,3.2,1.067,3.2,3.2c0,3.2,2.133,5.333,4.267,7.467c0-2.133,1.067-3.2,0-5.333
		c0-2.133-1.067-4.267-2.133-5.333c-1.067-2.133,0-4.267,1.067-6.4c2.133-2.133,4.267-3.2,6.4-5.333
		c1.067-1.067,2.133-3.2,1.067-5.333c0-1.067,0-3.2-1.067-4.267l0,0c0,1.067,1.067,2.133,1.067,3.2c2.133-5.333,4.267-9.6,8.533-9.6
		c1.067-2.133,1.067-4.267,1.067-4.267c3.2-2.133,6.4-3.2,9.6-5.333c0,0,0,0,0,1.067c-1.067,0-1.067,1.067-2.133,1.067
		c0,0,0,1.067-1.067,2.133c1.067,0,1.067,0,2.133,0c3.2-2.133,6.4-3.2,8.533-5.333c0-1.067-1.067-1.067-1.067-2.133
		c-1.067,1.067-2.133,4.267-4.267,3.2C99.333,176,97.2,176,97.2,172.8l-1.067-1.067c1.067,0,1.067-1.067,2.133-2.133v-1.067
		C94,167.467,90.8,169.6,87.6,172.8c3.2-4.267,6.4-7.467,11.733-6.4c2.133,0,5.333,0,7.467-1.067c2.133,0,3.2-1.067,5.333-2.133l0,0
		c1.067-1.067,2.133-2.133,1.067-5.333c-2.133-1.067-5.333-2.133-7.467-4.267c-1.067-1.067-3.2-1.067-2.133-4.267
		c0,0,0-1.067-1.067-2.133c-1.067-2.133-3.2-4.267-4.267-6.4c-1.067,1.067-1.067,2.133-1.067,3.2
		c-1.067,1.067-2.133,2.133-4.267,2.133c-1.067,0-3.2-1.067-3.2-4.267c0-1.067-1.067-1.067-2.133-2.133c0,0-1.067,0-2.133-1.067
		c3.2-3.2-1.067-1.067-5.333-1.067l0,0c0,2.133,1.067,3.2,1.067,5.333C80.133,144,80.133,144,80.133,144
		c1.067,2.133,3.2,4.267,3.2,5.333c-1.067,2.133-3.2,3.2-4.267,5.333c0,1.067,1.067,2.133,1.067,3.2c0,1.067,0,3.2,0,3.2
		c-1.067,1.067-1.067,1.067-3.2,0c-2.133-2.133-3.2-4.267-3.2-7.467c-3.2-1.067-6.4-1.067-9.6-3.2c-3.2-1.067-5.333-3.2-7.467-2.133
		c-2.133,0-3.2-2.133-4.267-2.133c-2.133-1.067-2.133-2.133-1.067-4.267c2.133-3.2,3.2-5.333,6.4-5.333c0-1.067,0-1.067,0-1.067
		c1.067,0,2.133,0,3.2-1.067c1.067-1.067,2.133-2.133,4.267-3.2c1.067,0,1.067-1.067,2.133-1.067c0,0,0-1.067-1.067-2.133
		c3.2,1.067,6.4,1.067,8.533-2.133c-1.067-1.067-1.067-1.067-2.133-2.133c0-1.067,1.067-1.067,1.067-2.133l-1.067-1.067
		c-1.067,0-1.067-1.067-2.133-1.067H68.4c0,1.067,0,2.133-1.067,2.133c-1.067,1.067-2.133,1.067-2.133,1.067
		c0,4.267-1.067,4.267-2.133,3.2L62,123.733c-1.067-2.133-2.133-2.133-3.2,0c-1.067-1.067-2.133-2.133-3.2-3.2c0,0,0,0,0-1.067
		c-1.067-2.133-2.133-3.2-3.2-4.267c1.067,0,1.067-1.067,2.133-2.133s3.2-1.067,4.267-2.133v-1.067c-2.133,0-4.267,0-7.467,0
		c-1.067,0-2.133,1.067-1.067,3.2s0,2.133-1.067,3.2c0,0-1.067,1.067-1.067,2.133c0,1.067,1.067,1.067,1.067,2.133
		c1.067,1.067,2.133,1.067,3.2,2.133v1.067c-1.067,0-2.133,1.067-3.2,1.067v1.067l0,0c-1.067-1.067-2.133-2.133-2.133-3.2
		c0,0,1.067-1.067,2.133-1.067c-2.133-1.067-3.2-3.2-5.333-1.067L42.8,121.6c1.067,0,2.133,1.067,2.133,1.067
		c-2.133,3.2-10.667,3.2-12.8,0c-13.867,23.467-23.467,49.067-27.733,76.8c1.067,2.133,2.133,3.2,4.267,4.267
		c1.067,0,2.133,2.133,3.2,4.267c1.067,2.133,3.2,5.333,4.267,7.467c0,1.067,0,2.133,0,3.2c0,1.067,1.067,1.067,2.133,2.133
		c1.067,0,2.133,1.067,2.133,1.067c0,4.267,3.2,4.267,4.267,6.4c0-1.067,0-2.133,0-2.133c-1.067-1.067-1.067-2.133-2.133-4.267
		c-2.133-3.2-3.2-6.4-5.333-8.533c-1.067-1.067-1.067-3.2-2.133-4.267L16.133,208c1.067,1.067,2.133,2.133,3.2,3.2
		c2.133,3.2,4.267,7.467,6.4,10.667c1.067,2.133,3.2,4.267,5.333,6.4c1.067,1.067,1.067,3.2,1.067,5.333c0,1.067,0,3.2,1.067,3.2
		c4.267,3.2,8.533,5.333,13.867,7.467c1.067,0,2.133,0,2.133,0c2.133-2.133,3.2,0,4.267,1.067s3.2,2.133,5.333,3.2
		c2.133,1.067,5.333,1.067,6.4,5.333c0,1.067,1.067,2.133,1.067,3.2c0,0,0,1.067,1.067,1.067c2.133,2.133,5.333,3.2,7.467,5.333
		c0,0,1.067,0,1.067-1.067c1.067-1.067,1.067-2.133,2.133-3.2c1.067,1.067,1.067,2.133,2.133,2.133v1.067
		c2.133,5.333,1.067,11.733-2.133,14.933c-2.133,2.133-3.2,7.467-1.067,9.6c-2.133,1.067-3.2,3.2-2.133,6.4
		c0,1.067,2.133,2.133,2.133,3.2c1.067,3.2,3.2,6.4,4.267,10.667c1.067,2.133,1.067,4.267,2.133,6.4
		c1.067,2.133,3.2,3.2,5.333,5.333C90.8,321.067,94,322.133,94,326.4c0,2.133,0,5.333,0,7.467c0,4.267-1.067,9.6-2.133,13.867
		c0,2.133,0,5.333,0,7.467c0,1.067,0,2.133,0,3.2c-1.067,4.267-4.267,8.533-3.2,13.867v1.067c0,2.133-1.067,5.333-1.067,7.467
		c0,0,0,0,1.067,0c0-1.067,1.067-3.2,1.067-4.267H90.8c0,3.2-1.067,5.333-2.133,8.533c0-2.133,0-2.133-1.067-3.2
		c-1.067,2.133-2.133,4.267-2.133,5.333c1.067,0,1.067,0,2.133,1.067c-1.067,2.133-1.067,6.4-1.067,10.667H87.6
		c-1.067,9.6,7.467,16,13.867,11.733c-2.133-2.133-4.267-3.2-6.4-5.333h1.067c0-2.133,0-3.2,0-4.267
		c1.067-2.133,3.2-3.2,4.267-5.333c0,0,0-1.067,1.067-2.133c-1.067-1.067-2.133-1.067-4.267-3.2c4.267-3.2,7.467-6.4,5.333-12.8
		c5.333,1.067,5.333,1.067,5.333-4.267c2.133,0,4.267,0,6.4-1.067c1.067,0,2.133-2.133,3.2-3.2c0,0,0-2.133-1.067-2.133
		c-1.067-1.067-1.067-3.2-2.133-4.267c1.067,0,2.133,1.067,2.133,1.067c2.133,1.067,4.267,1.067,6.4-2.133
		c2.133-4.267,4.267-7.467,7.467-11.733c1.067-1.067,1.067-3.2,1.067-4.267c0-1.067,0-3.2,1.067-3.2
		c2.133-2.133,5.333-4.267,7.467-5.333s4.267-1.067,5.333-5.333c2.133-4.267,3.2-9.6,3.2-14.933c0-1.067,0-3.2,1.067-4.267
		c2.133-3.2,4.267-5.333,5.333-8.533C156.933,301.867,155.867,299.733,155.867,296.533z"/>
</g>
<path style="fill:#8BD7F8;" d="M38.533,122.667c-1.067-1.067-1.067-2.133-1.067-2.133H39.6c-1.067-1.067-3.2-1.067-4.267-2.133
	c-1.067,1.067-2.133,3.2-2.133,4.267C34.267,121.6,36.4,121.6,38.533,122.667z"/>
<g>
	<path style="fill:#57C0EC;" d="M232.667,221.867c3.2,2.133,4.267,4.267,4.267,6.4c0,1.067,0,1.067,0,2.133
		c-1.067,2.133-3.2,3.2-4.267,5.333c-1.067-1.067-3.2-3.2-4.267-5.333c-3.2,1.067-6.4,2.133-8.533,4.267v2.133
		c2.133,2.133,5.333,4.267,8.533,5.333c1.067,1.067,2.133,2.133,4.267,3.2c-2.133,0-3.2,0-5.333-1.067c-2.133,0-3.2-1.067-5.333,0
		c-2.133,1.067-5.333,0-7.467-1.067c-2.133,0-3.2-1.067-4.267,0c-2.133,1.067-4.267,1.067-6.4,1.067c-3.2,0-5.333,1.067-7.467,1.067
		c-3.2,1.067-7.467-1.067-9.6-2.133c-3.2-2.133-6.4-4.267-7.467-7.467c-1.067-2.133-4.267-4.267-6.4-6.4l-1.067-1.067
		c0-1.067,0-2.133,0-2.133c2.133-2.133-3.2-6.4,3.2-6.4c-1.067-2.133,1.067-6.4,4.267-7.467c1.067,0,1.067,0,2.133,0
		c1.067,0,2.133,1.067,3.2,0c1.067-1.067,2.133-1.067,4.267,0c-1.067-1.067-1.067-2.133-1.067-3.2l0,0
		c1.067,1.067,2.133,2.133,4.267,4.267c-1.067-2.133-2.133-4.267-2.133-6.4c7.467,1.067,11.733-4.267,11.733-8.533
		c0-2.133,1.067-4.267,1.067-6.4c-1.067-3.2,0-5.333,1.067-7.467c0-1.067,0-2.133,0-3.2c-1.067-3.2,1.067-5.333,4.267-6.4
		c1.067,2.133,3.2,3.2,6.4,4.267c3.2,0,6.4,1.067,9.6,2.133c2.133,1.067,5.333,2.133,7.467,3.2c1.067,0,2.133,1.067,2.133,2.133
		c0,2.133,1.067,4.267,1.067,6.4c0,3.2-2.133,6.4,1.067,9.6c1.067,1.067,2.133,2.133,4.267,3.2c-1.067,0-2.133,0-2.133,0
		c1.067,1.067,1.067,2.133,2.133,3.2c1.067,2.133,2.133,3.2,2.133,5.333c0,1.067-1.067,1.067-1.067,2.133
		C234.8,220.8,233.733,221.867,232.667,221.867z"/>
	<path style="fill:#57C0EC;" d="M450.267,185.6c-2.133-1.067,0-2.133,0-2.133s0-1.067,1.067-1.067l0,0l-1.067,1.067
		c-1.067-3.2-2.133-6.4-3.2-9.6c0-1.067-1.067-2.133-1.067-2.133c0-3.2,0-6.4-1.067-10.667c0-2.133-1.067-3.2-4.267-3.2
		c-1.067,0-2.133-1.067-4.267-1.067c-4.267,1.067-2.133,5.333-2.133,8.533c-1.067,0-2.133,0-4.267,0c-2.133,0-3.2,0-5.333,0
		c-3.2,0,0,3.2-1.067,4.267v1.067c0,1.067,0,1.067,0,2.133c3.2,1.067,4.267,3.2,4.267,6.4c0,0,0,1.067,1.067,1.067s1.067,0,1.067,0
		c2.133-1.067,4.267-1.067,5.333,2.133c0,1.067,0,2.133,0,4.267c0,1.067,0,2.133,1.067,3.2c2.133,2.133,1.067,6.4-2.133,6.4
		c0-2.133-1.067-3.2-1.067-5.333c0-2.133,0-4.267-4.267-5.333c0,0-1.067,0-1.067-1.067c-2.133,1.067-3.2,2.133-4.267,4.267
		c0,3.2-1.067,6.4-4.267,8.533c1.067-4.267,2.133-7.467,3.2-10.667c-1.067,0-1.067,0-2.133,0c-1.067,1.067-2.133,1.067-3.2,0
		c0,0,1.067-1.067,1.067-2.133c0-1.067,1.067-1.067,1.067-2.133c0-1.067-1.067-2.133-2.133-2.133c-1.067,0-1.067-1.067-2.133-1.067
		c0-1.067,0-3.2,0-4.267c2.133-1.067,2.133-3.2,2.133-4.267c0-1.067,1.067-2.133,1.067-4.267c0-1.067,1.067-2.133,1.067-2.133
		c0-2.133,2.133-3.2,3.2-3.2c2.133,1.067,3.2,3.2,4.267,4.267c0,0,0,0,1.067,0c0-1.067,0-3.2-1.067-4.267S423.6,160,421.467,160
		c0-1.067,0-1.067,0-2.133c1.067-2.133,1.067-5.333,0-8.533c-1.067-1.067,0-2.133,0-3.2s0-1.067,0-2.133
		c-2.133-2.133-2.133-4.267,0-6.4c-3.2-1.067-2.133-2.133-1.067-2.133c0-1.067,1.067-2.133,1.067-3.2c-1.067,0-2.133,0-2.133,0
		c-2.133,1.067-3.2,2.133-5.333,2.133c-1.067,0-3.2-1.067-5.333-2.133v-2.133c1.067-2.133,2.133-3.2,2.133-4.267
		c1.067-2.133,1.067-3.2,2.133-4.267c-3.2-2.133-6.4-3.2-9.6-5.333l0,0c-1.067,0-3.2-1.067-4.267-1.067c0,1.067-1.067,3.2-2.133,3.2
		c-3.2,0-2.133,2.133-2.133,3.2c0,1.067-1.067,1.067-1.067,2.133s0,2.133,0,3.2c0,2.133,0,4.267,3.2,5.333
		c1.067,0,1.067,3.2,2.133,4.267c0,1.067,1.067,3.2,1.067,3.2c2.133,1.067,2.133,2.133,1.067,3.2
		c-2.133,2.133-2.133,4.267-1.067,6.4c0,2.133-1.067,2.133-2.133,3.2c-2.133,1.067-5.333,1.067-7.467,2.133
		c-3.2,2.133-6.4,2.133-9.6,0c1.067,1.067,1.067,2.133,2.133,3.2c1.067,0,2.133,1.067,2.133,1.067c0,1.067-1.067,2.133-1.067,2.133
		h1.067c3.2-2.133,6.4-4.267,10.667-4.267l0,0c1.067,0,2.133,0,3.2,0s1.067,1.067,1.067,2.133c-1.067,0-2.133,0-2.133,0
		c0,2.133-2.133,1.067-3.2,1.067s-1.067,1.067-2.133,1.067c-1.067,1.067-3.2,2.133-4.267,2.133c-1.067,0-1.067,0-2.133,0
		c-1.067,0-3.2-1.067-4.267-1.067c-1.067,0-2.133,1.067-3.2,0c-2.133-1.067-3.2,0-3.2,1.067c1.067,1.067,1.067,2.133,2.133,3.2
		c2.133,0,3.2,0,5.333,0c0,1.067-1.067,1.067-1.067,2.133s0,3.2-1.067,4.267c-1.067,0-3.2,0-5.333-1.067
		c-2.133-1.067-8.533,1.067-7.467,3.2c1.067,2.133,0,3.2-2.133,3.2c-1.067,0-1.067,1.067-1.067,2.133c0,1.067,0,3.2,0,5.333
		c-3.2-2.133-5.333-5.333-8.533-6.4c-3.2-2.133-2.133-4.267-1.067-6.4c1.067-1.067,1.067-2.133,1.067-3.2c0,0,0-1.067,0-2.133
		c3.2-2.133,5.333-5.333,8.533-7.467c2.133-1.067,2.133-4.267-1.067-6.4c-2.133-1.067-2.133-2.133,0-3.2
		c1.067-1.067,2.133-2.133,3.2-3.2c0,0,1.067-1.067,2.133-1.067c1.067-1.067,3.2-1.067,4.267-2.133c2.133-1.067,3.2-3.2,4.267-4.267
		h1.067c0,3.2,3.2,2.133,5.333,5.333c1.067-2.133,1.067-3.2,2.133-5.333c1.067-2.133,2.133-4.267,3.2-6.4
		c1.067-2.133,1.067-3.2,1.067-5.333c0-4.267,0-7.467,3.2-9.6c-1.067-3.2-1.067-5.333-2.133-7.467c2.134-5.333,1.067-7.467,0-7.467
		c-4.267-2.133-4.267-4.267-4.267-7.467c0-1.067,0-2.133-1.067-2.133c-2.133-3.2-5.333-7.467-8.533-10.667
		c0-1.067-1.067-1.067-2.133-1.067c-5.333-1.067-9.6-3.2-12.8-6.4c-1.067-1.067-2.133-2.133-4.267-2.133c-1.067,0-2.133,0-2.133,0
		c-3.2,1.067-6.4,2.133-10.667,1.067c-1.067,0-2.133,0-2.133,0c-2.133,1.067-3.2,1.067-5.333,2.133
		c-2.133,1.067-4.267,2.133-4.267,4.267c0,1.067,0,2.133,0,2.133c-2.133,3.2-4.267,6.4-4.267,10.667c0,1.067,0,3.2-1.067,4.267
		c0,2.133-2.133,2.133-4.267,2.133s-2.133,0-3.2,2.133c0,1.067,0,1.067-1.067,2.133c0,1.067-3.2,2.133-5.333,1.067
		c-2.133-1.067-4.267-2.133-5.333-4.267c-2.133-2.133-4.267-2.133-6.4-2.133c-6.4,2.133-13.867-1.067-20.267-3.2
		c-1.067,0-1.067-1.067-2.133-2.133c-2.133-2.133-4.267-4.267-7.467-6.4c-1.067-1.067-3.2-1.067-5.333-2.133
		c-4.267-1.067-8.533,0-12.8-2.133c-2.133-1.067-5.333-2.133-8.533-2.133c-3.2,0-6.4,0-9.6,0c-1.067,0-2.133,0-2.133-1.067
		c-2.133-2.133-5.333-1.067-6.4,1.067c0,2.133-1.067,4.267-1.067,5.333c-2.133,3.2-2.133,6.4,0,9.6c1.067,3.2,3.2,5.333,4.267,7.467
		c1.067,1.067,2.133,3.2,4.267,4.267c3.2,1.067,2.133,2.133,2.133,3.2c0,3.2,1.067,4.267,5.333,5.333c1.067,0,2.133,0,3.2,1.067
		c1.067,0,2.133,1.067,2.133,1.067c1.067,3.2,2.133,5.333,3.2,8.533c0,2.133,1.067,4.267,4.267,5.333
		c4.267,1.067,7.467,3.2,11.733,4.267c5.333,0,9.6,3.2,12.8,7.467c1.067,2.133,2.133,4.267,3.2,6.4c1.067,3.2,2.133,5.333,3.2,8.533
		c2.133,5.333,7.467,10.667,11.733,14.933c1.067,1.067,3.2,2.133,4.267,3.2c1.067-4.267,1.067-7.467,2.133-11.733
		c0-1.067,3.2-1.067,4.267-1.067c1.067,2.133,2.133,1.067,3.2,1.067c2.133-1.067,4.267-1.067,6.4-2.133c1.067,0,2.133,0,3.2,0
		c2.133,0,3.2,0,5.333,0c1.067,0,2.133,0,2.133,0c4.267,3.2,9.6,1.067,13.867,2.133c3.2,1.067,6.4,1.067,10.667,1.067l0,0
		c-1.067,0-3.2,0-4.267,0c1.067,3.2,1.067,3.2,1.067,4.267c-1.067,0-2.133,0-3.2,0c-5.333-1.067-10.667,2.133-16-1.067
		c0,0-1.067,0-2.133,0c-3.2,0-6.4,1.067-9.6,1.067c-1.067,0-2.133,0-3.2-1.067c-2.133-1.067-4.267-1.067-6.4-2.133
		c-1.067,0-2.133,0-2.133,1.067c0,3.2,0,6.4,0,9.6c0,3.2,1.067,6.4,1.067,9.6c0,1.067,0,3.2,0,4.267
		c1.067,4.267,4.267,7.467,6.4,11.733c2.133,0,3.2,0,4.267-1.067c2.133-2.133,4.267-2.133,7.467-1.067
		c-1.067-1.067-1.067-2.133-2.133-3.2c-2.133-2.133,0-4.267,1.067-5.333c1.067-1.067,2.133,1.067,4.267,1.067h1.067
		c0-1.067-1.067-1.067-1.067-2.133c2.133,0,3.2,0,5.333,0s3.2,0,5.333,0c1.067,3.2,1.067,4.267-2.133,4.267
		c-6.4,0-8.533,2.133-8.533,7.467c-4.267-1.067-5.333,1.067-6.4,3.2c-2.133,3.2-3.2,5.333-4.267,8.533
		c0,1.067-2.133,2.133-3.2,2.133c-2.133,0-5.333,1.067-6.4,3.2c0-1.067,0-2.133,0-3.2c-2.133,1.067-3.2,1.067-4.267,2.133
		c0,1.067,1.067,2.133,1.067,3.2c-2.133-1.067-3.2-2.133-5.333-2.133c-5.333-1.067-10.667-2.133-16-3.2
		c-3.2-1.067-5.333-1.067-8.533-1.067c-1.067,0-2.133,1.067-3.2,1.067c2.133,2.133,2.133,5.333,5.333,6.4
		c2.133,1.067,4.267,2.133,6.4,4.267c1.067,0,1.067,1.067,1.067,1.067c1.067,4.267,3.2,9.6,4.267,13.867c0,0,0,1.067,1.067,1.067
		c2.133,1.067,1.067,2.133,1.067,3.2c0,2.133-1.067,3.2-1.067,5.333c-1.067,0-3.2-1.067-5.333,0
		c-3.2,1.067-7.467,1.067-10.667-2.133c-2.133,1.067-2.133,1.067,0,5.333c-5.333-2.133-10.667-1.067-14.933-5.333
		c-2.133-2.133-4.267-2.133-7.467-2.133c-1.067,0-3.2,0-5.333-1.067C244.4,246.4,240.133,246.4,238,249.6
		c3.2,1.067,5.333,2.133,8.533,2.133h1.067c3.2-1.067,6.4-2.133,9.6-1.067c1.067,0,2.133,0,3.2,1.067
		c1.067,1.067,3.2,2.133,4.267,3.2l1.067,1.067c-3.2,1.067-5.333,1.067-7.467,2.133c-2.133,1.067-3.2,1.067-5.333,0
		c1.067,3.2,1.067,5.333,2.133,8.533c0,1.067,1.067,2.133,2.133,2.133c3.2,2.133,6.4,3.2,9.6,2.133c2.133,0,4.267-1.067,5.333-1.067
		s2.133,0,2.133,1.067c2.133,2.133,2.133,5.333,1.067,7.467c-1.067,0-2.133,0-2.133,0c1.067,1.067,1.067,2.133,1.067,3.2
		c0,3.2,0,6.4-1.067,8.533c0,1.067,0,1.067,0,2.133c0,4.267,5.333,8.533,7.467,12.8c1.067,2.133,2.133,2.133,4.267,1.067
		c1.067,1.067,2.133,2.133,3.2,2.133c3.2,0,5.333,0,8.533,0c1.067,2.133,1.067,4.267,2.133,7.467l3.2-5.333
		c1.067,0,1.067-1.067,2.133-1.067h1.067v1.067c0,1.067,0,2.133,0,2.133c0,2.133,2.133,4.267,0,5.333
		c-1.067-1.067-2.133-2.133-2.133-2.133c0,3.2,0,5.333-3.2,6.4c-1.067-1.067-1.067-1.067-2.133-2.133
		c-2.133,4.267-5.333-1.067-9.6-1.067c0,2.133,0,4.267,1.067,5.333c3.2,2.133,6.4,1.067,9.6,1.067l1.067,1.067
		c0,2.133,0,3.2,2.133,5.333c1.067,1.067,2.133,4.267,1.067,5.333c-2.133,1.067-2.133,3.2-1.067,5.333
		c3.2,5.333,3.2,11.733,10.667,16l1.067,1.067c1.067,1.067,2.133,2.133,3.2,2.133s3.2-1.067,3.2-3.2c0-1.067,0-2.133,1.067-3.2
		c1.067-1.067,2.133-1.067,3.2-1.067c1.067,2.133,1.067,5.333,2.133,7.467c1.067,4.267,3.2,8.533,0,11.733
		c0,1.067-1.067,1.067-1.067,2.133c-1.067,2.133-2.133,5.333-3.2,7.467c0,1.067-2.133,1.067-2.133,1.067
		c-1.067,1.067-1.067,3.2-1.067,4.267h1.067l1.067,1.067c1.067,3.2,2.133,7.467-1.067,9.6l-1.067-1.067L318,398.933V400
		c0,2.133,1.067,4.267,1.067,6.4H318c-1.067-2.133-1.067-4.267-2.133-7.467c-1.067-3.2-1.067-6.4-1.067-9.6
		c0-2.133-2.133-5.333-4.267-6.4c-3.2-1.067-6.4-1.067-9.6-2.133C302,381.867,302,384,302,385.067
		c1.067,3.2,4.267,5.333,2.133,8.533c3.2,1.067,3.2,1.067,2.133,3.2c1.067,0,2.133,1.067,3.2,1.067l1.067-1.067
		c3.2,3.2,3.2,6.4,2.133,8.533c-1.067,2.133,0,5.333-4.267,6.4c0,0,0,0,0,1.067c0,5.333,1.067,10.667-2.133,14.933v1.067
		c2.133,0,4.267-1.067,5.333-1.067c0,1.067-1.067,2.133-1.067,4.267l8.533,4.267c3.2-4.267,6.4-8.533,9.6-13.867
		c-2.133,0-2.133,0-4.267-1.067c1.067-2.133,2.133-3.2,3.2-4.267c0,0,0,0,1.067,0v1.067c1.067,0,1.067-1.067,1.067-1.067
		c1.067-2.133,1.067-3.2,2.133-5.333c1.067-2.133,1.067-4.267,2.133-5.333c0-1.067,1.067-2.133,2.133-2.133
		c3.2,1.067,3.2-1.067,4.267-2.133c1.067-2.133,2.133-4.267,3.2-7.467c1.067-1.067,1.067-2.133,2.133-3.2
		c2.133-2.133,4.267-4.267,5.333-6.4c1.067-1.067,1.067-2.133,2.133-3.2c2.133-2.133,3.2-5.333,4.267-7.467
		c-1.067,0-2.133-1.067-3.2-1.067c1.067-2.133,3.2-4.267,3.2-5.333c0-3.2,4.267-4.267,2.133-7.467c0,0,0-1.067,1.067-1.067
		c1.067-1.067,2.133-1.067,4.267-2.133c0,1.067,0,1.067,0,2.133c1.067,0,2.133,0,2.133,0c1.067-2.133,3.2-3.2,4.267-5.333
		c0,0,0-1.067,0-2.133c0-1.067,0-2.133,0-2.133c2.133-2.133,4.267-5.333,5.333-7.467c1.067-2.133,2.133-5.333,4.267-7.467
		c1.067-1.067,2.133-2.133,2.133-3.2c0-2.133,0-4.267,1.067-6.4h1.067c0,4.267-2.133,8.533-1.067,13.867c0,0,1.067,0,1.067,1.067
		c2.133-2.133,3.2-5.333,5.333-7.467c1.067-1.067,1.067-3.2,3.2-4.267c3.2-1.067,3.2-4.267,3.2-6.4
		c-1.067-3.2,1.067-6.4,1.067-8.533c2.133-5.333,3.2-9.6,5.333-14.933c0-1.067,0-2.133-2.133-2.133l5.333-10.667
		c-3.2-2.133-3.2,1.067-5.333,1.067c2.133-2.133,4.267-4.267,6.4-7.467c-1.067,0-1.067,0-2.133,0
		c1.067-1.067,1.067-2.133,2.133-2.133c0,0,0,0-1.067,0c-1.067,1.067-2.133,1.067-2.133,2.133l0,0
		c1.067-1.067,2.133-2.133,2.133-4.267l3.2,1.067c0-1.067,0-3.2-1.067-4.267c-1.067,0-2.133,0-2.133,1.067V272
		c-1.067,0-2.133-1.067-3.2-1.067c1.067,4.267,1.067,6.4,1.067,6.4l0,0c0-1.067,0-2.133,0-3.2c-3.2-1.067-4.267-5.333-1.067-9.6
		c-1.067,2.133-1.067,4.267,1.067,7.467c0,0,0,0,0-1.067c2.133,1.067,4.267,1.067,7.467,2.133c0,0,1.067,1.067,1.067,2.133
		c2.133-3.2,2.133-3.2,1.067-10.667c-1.067,0-2.133-1.067-3.2-1.067s-2.133,1.067-3.2,2.133c0,0-1.067,0-1.067-1.067
		c3.2-4.267,8.533-6.4,9.6-11.733c-1.067,0-1.067,0-2.133,0c0-1.067,0-2.133,0-2.133c1.067,0,2.133-1.067,2.133-1.067
		c0-4.267,3.2-7.467,4.267-10.667c1.067-2.133,1.067-5.333,1.067-7.467c-1.067-3.2,0-3.2,2.133-5.333c0,1.067,0,2.133,0,3.2
		c0,0,0,0,1.067,0c1.067-1.067,1.067-2.133,2.133-3.2c-1.067,0-3.2-1.067-3.2-1.067c-1.067,0-1.067-1.067-1.067-2.133
		c1.067-2.133,1.067-4.267,2.133-6.4c-1.067,0-2.133,0-3.2,0c1.067-2.133,3.2-3.2,4.267-5.333c0,0,0,0-1.067,0
		s-1.067,1.067-2.133,1.067c0-2.133,2.133-5.333,4.267-4.267c2.133,1.067,3.2,0,4.267-1.067c0,0,1.067,0,2.133-1.067
		c-3.2,4.267-8.533,7.467-6.4,13.867c7.467-3.2,10.667-9.6,14.933-14.933c0,1.067,0,1.067,0,2.133h1.067
		c1.067-3.2,2.133-5.333,3.2-8.533c0,0,0,0,1.067,1.067c0-1.067,0-1.067,0-1.067c0-3.2,0-6.4,2.133-9.6
		C450.267,187.733,450.267,185.6,450.267,185.6z"/>
</g>
<rect x="376.193" y="379.036" transform="matrix(-0.7071 0.7071 -0.7071 -0.7071 955.9756 396.2277)" style="fill:#354B5E;" width="39.466" height="34.133"/>
<path style="fill:#435B6C;" d="M388.4,203.733c-51.2-51.2-133.333-51.2-184.533,0s-51.2,133.333,0,184.533s133.333,51.2,184.533,0
	S439.6,254.933,388.4,203.733z M361.733,361.6c-36.267,36.267-94.933,36.267-131.2,0s-36.267-94.933,0-131.2s94.933-36.267,131.2,0
	S398,325.333,361.733,361.6z"/>
<path style="fill:#F15741;" d="M498.267,446.933l-60.8-60.8L385.2,438.4l60.8,60.8c13.867,13.867,37.333,13.867,52.267,0
	C513.2,484.267,513.2,460.8,498.267,446.933z"/>
<path style="fill:#F3705B;" d="M447.067,377.6c-4.267-4.267-12.8-4.267-17.067,0l-52.267,52.267c-4.267,4.267-4.267,12.8,0,17.067
	c4.267,4.267,12.8,4.267,17.067,0l52.267-52.267C451.333,390.4,451.333,381.867,447.067,377.6z"/>
<g>
</g>
<g>
</g>
<g>
</g>
<g>
</g>
<g>
</g>
<g>
</g>
<g>
</g>
<g>
</g>
<g>
</g>
<g>
</g>
<g>
</g>
<g>
</g>
<g>
</g>
<g>
</g>
<g>
</g>
</svg>
