<?xml version="1.0" encoding="iso-8859-1"?>
<!-- Generator: Adobe Illustrator 19.0.0, SVG Export Plug-In . SVG Version: 6.00 Build 0)  -->
<svg version="1.1" id="Capa_1" xmlns="http://www.w3.org/2000/svg" xmlns:xlink="http://www.w3.org/1999/xlink" x="0px" y="0px"
	 viewBox="0 0 513.067 513.067" style="enable-background:new 0 0 513.067 513.067;" xml:space="preserve">
<path style="fill:#435B6C;" d="M176.533,23.467H161.6V8.533C161.6,3.2,157.333,0,153.067,0l0,0c-5.333,0-8.533,4.267-8.533,8.533
	v14.933h-16C123.2,23.467,120,27.733,120,32c0,5.333,4.267,8.533,8.533,8.533h14.933V108.8c0,5.333,4.267,8.533,8.533,8.533l0,0
	c5.333,0,8.533-4.267,8.533-8.533V41.6h14.933c5.333,0,8.533-4.267,8.533-8.533C185.067,27.733,180.8,23.467,176.533,23.467z"/>
<rect x="38.933" y="294.4" style="fill:#CFD7E1;" width="436.267" height="218.667"/>
<polygon style="fill:#F15741;" points="474.133,214.4 38.933,214.4 0.533,294.4 512.533,294.4 "/>
<path style="fill:#E8EAE9;" d="M153.067,123.733c-30.933,30.933-48,48-80,80V512H232V203.733
	C201.067,172.8,184,154.667,153.067,123.733z"/>
<rect x="110.4" y="393.6" style="fill:#435B6C;" width="83.2" height="118.4"/>
<path style="fill:#F3705B;" d="M261.867,210.133L163.733,112c-6.4-6.4-17.067-6.4-23.467,0L43.2,210.133
	c-6.4,6.4-6.4,17.067,0,23.467c3.2,3.2,7.467,5.333,11.733,5.333s8.533-2.133,11.733-5.333l86.4-86.4l86.4,86.4
	c6.4,6.4,17.067,6.4,23.467,0C268.267,227.2,268.267,216.533,261.867,210.133z"/>
<circle style="fill:#435B6C;" cx="153.067" cy="302.933" r="41.6"/>
<circle style="fill:#8BD7F8;" cx="153.067" cy="302.933" r="29.867"/>
<rect x="274.667" y="333.867" style="fill:#435B6C;" width="66.133" height="137.6"/>
<rect x="286.4" y="345.6" style="fill:#8BD7F8;" width="43.733" height="114.133"/>
<rect x="365.333" y="333.867" style="fill:#435B6C;" width="66.133" height="137.6"/>
<rect x="377.067" y="345.6" style="fill:#8BD7F8;" width="43.733" height="114.133"/>
<g>
</g>
<g>
</g>
<g>
</g>
<g>
</g>
<g>
</g>
<g>
</g>
<g>
</g>
<g>
</g>
<g>
</g>
<g>
</g>
<g>
</g>
<g>
</g>
<g>
</g>
<g>
</g>
<g>
</g>
</svg>
